<mxfile host="app.diagrams.net" modified="2022-05-10T01:58:31.903Z" agent="5.0 (Macintosh; Intel Mac OS X 10_15_7) AppleWebKit/537.36 (KHTML, like Gecko) Chrome/100.0.4896.127 Safari/537.36" etag="FjavllkN7D8wzS5b_IqF" version="17.4.6" type="github">
  <diagram id="Me7G5VqX1OeY0wDDpJwC" name="Page-1">
    <mxGraphModel dx="2755" dy="1505" grid="1" gridSize="10" guides="1" tooltips="1" connect="1" arrows="1" fold="1" page="1" pageScale="1" pageWidth="827" pageHeight="1169" math="0" shadow="0">
      <root>
        <mxCell id="0" />
        <mxCell id="1" parent="0" />
        <mxCell id="yS444L0ZShRZLBpKUCgd-1" value="" style="rounded=0;whiteSpace=wrap;html=1;fillColor=#fff2cc;strokeColor=#d6b656;" vertex="1" parent="1">
          <mxGeometry x="170" y="300" width="120" height="560" as="geometry" />
        </mxCell>
        <mxCell id="yS444L0ZShRZLBpKUCgd-2" value="ZooKeeper集群" style="text;html=1;align=center;verticalAlign=middle;resizable=0;points=[];autosize=1;strokeColor=none;fillColor=none;" vertex="1" parent="1">
          <mxGeometry x="180" y="340" width="100" height="20" as="geometry" />
        </mxCell>
        <mxCell id="yS444L0ZShRZLBpKUCgd-4" value="nacos" style="whiteSpace=wrap;html=1;" vertex="1" parent="1">
          <mxGeometry x="185" y="410" width="90" height="50" as="geometry" />
        </mxCell>
        <mxCell id="yS444L0ZShRZLBpKUCgd-5" value="nacos" style="whiteSpace=wrap;html=1;" vertex="1" parent="1">
          <mxGeometry x="185" y="510" width="90" height="50" as="geometry" />
        </mxCell>
        <mxCell id="yS444L0ZShRZLBpKUCgd-6" value="nacos" style="whiteSpace=wrap;html=1;" vertex="1" parent="1">
          <mxGeometry x="185" y="600" width="90" height="50" as="geometry" />
        </mxCell>
        <mxCell id="yS444L0ZShRZLBpKUCgd-7" value="nacos" style="whiteSpace=wrap;html=1;" vertex="1" parent="1">
          <mxGeometry x="185" y="690" width="90" height="50" as="geometry" />
        </mxCell>
        <mxCell id="yS444L0ZShRZLBpKUCgd-8" value="nacos" style="whiteSpace=wrap;html=1;" vertex="1" parent="1">
          <mxGeometry x="185" y="780" width="90" height="50" as="geometry" />
        </mxCell>
        <mxCell id="yS444L0ZShRZLBpKUCgd-9" value="" style="rounded=1;whiteSpace=wrap;html=1;fillColor=#d5e8d4;strokeColor=#82b366;" vertex="1" parent="1">
          <mxGeometry x="732.5" y="300" width="399" height="167" as="geometry" />
        </mxCell>
        <mxCell id="yS444L0ZShRZLBpKUCgd-10" value="" style="rounded=1;whiteSpace=wrap;html=1;fillColor=#f8cecc;strokeColor=#b85450;" vertex="1" parent="1">
          <mxGeometry x="330" y="302" width="397" height="167" as="geometry" />
        </mxCell>
        <mxCell id="yS444L0ZShRZLBpKUCgd-11" value="MQTT" style="rounded=1;whiteSpace=wrap;html=1;fillColor=#dae8fc;strokeColor=#6c8ebf;" vertex="1" parent="1">
          <mxGeometry x="336" y="324" width="179" height="67" as="geometry" />
        </mxCell>
        <mxCell id="yS444L0ZShRZLBpKUCgd-12" value="Websocket" style="rounded=1;whiteSpace=wrap;html=1;fillColor=#d5e8d4;strokeColor=#82b366;" vertex="1" parent="1">
          <mxGeometry x="533" y="324" width="185" height="64" as="geometry" />
        </mxCell>
        <mxCell id="yS444L0ZShRZLBpKUCgd-13" value="长链接" style="text;html=1;strokeColor=none;fillColor=none;align=center;verticalAlign=middle;whiteSpace=wrap;rounded=0;" vertex="1" parent="1">
          <mxGeometry x="344" y="302" width="40" height="20" as="geometry" />
        </mxCell>
        <mxCell id="yS444L0ZShRZLBpKUCgd-14" value="MQTT-common" style="rounded=1;whiteSpace=wrap;html=1;" vertex="1" parent="1">
          <mxGeometry x="338" y="397" width="381" height="67" as="geometry" />
        </mxCell>
        <mxCell id="yS444L0ZShRZLBpKUCgd-15" value="" style="rounded=1;whiteSpace=wrap;html=1;fillColor=#ffe6cc;strokeColor=#d79b00;" vertex="1" parent="1">
          <mxGeometry x="332" y="501" width="800" height="239" as="geometry" />
        </mxCell>
        <mxCell id="yS444L0ZShRZLBpKUCgd-16" value="web" style="rounded=1;whiteSpace=wrap;html=1;fillColor=#dae8fc;strokeColor=#6c8ebf;" vertex="1" parent="1">
          <mxGeometry x="742" y="326" width="120" height="60" as="geometry" />
        </mxCell>
        <mxCell id="yS444L0ZShRZLBpKUCgd-17" value="admin" style="rounded=1;whiteSpace=wrap;html=1;fillColor=#e3c800;strokeColor=#B09500;fontColor=#000000;" vertex="1" parent="1">
          <mxGeometry x="870" y="327.5" width="120" height="60" as="geometry" />
        </mxCell>
        <mxCell id="yS444L0ZShRZLBpKUCgd-18" value="media" style="rounded=1;whiteSpace=wrap;html=1;fillColor=#fff2cc;strokeColor=#d6b656;" vertex="1" parent="1">
          <mxGeometry x="744" y="397" width="120" height="60" as="geometry" />
        </mxCell>
        <mxCell id="yS444L0ZShRZLBpKUCgd-19" value="operate" style="rounded=1;whiteSpace=wrap;html=1;fillColor=#ffe6cc;strokeColor=#d79b00;" vertex="1" parent="1">
          <mxGeometry x="1002" y="327.5" width="120" height="60" as="geometry" />
        </mxCell>
        <mxCell id="yS444L0ZShRZLBpKUCgd-20" value="mapi" style="rounded=1;whiteSpace=wrap;html=1;fillColor=#f8cecc;strokeColor=#b85450;" vertex="1" parent="1">
          <mxGeometry x="874" y="397" width="120" height="60" as="geometry" />
        </mxCell>
        <mxCell id="yS444L0ZShRZLBpKUCgd-21" value="... ..." style="rounded=1;whiteSpace=wrap;html=1;" vertex="1" parent="1">
          <mxGeometry x="1004" y="397" width="120" height="60" as="geometry" />
        </mxCell>
        <mxCell id="yS444L0ZShRZLBpKUCgd-22" value="api" style="text;html=1;strokeColor=none;fillColor=none;align=center;verticalAlign=middle;whiteSpace=wrap;rounded=0;" vertex="1" parent="1">
          <mxGeometry x="755" y="304" width="40" height="20" as="geometry" />
        </mxCell>
        <mxCell id="yS444L0ZShRZLBpKUCgd-23" value="消息撤回" style="rounded=1;whiteSpace=wrap;html=1;" vertex="1" parent="1">
          <mxGeometry x="610" y="510" width="120" height="60" as="geometry" />
        </mxCell>
        <mxCell id="yS444L0ZShRZLBpKUCgd-24" value="消息存储" style="rounded=1;whiteSpace=wrap;html=1;" vertex="1" parent="1">
          <mxGeometry x="352" y="510" width="120" height="60" as="geometry" />
        </mxCell>
        <mxCell id="yS444L0ZShRZLBpKUCgd-25" value="聊天关系" style="rounded=1;whiteSpace=wrap;html=1;" vertex="1" parent="1">
          <mxGeometry x="872" y="510" width="120" height="60" as="geometry" />
        </mxCell>
        <mxCell id="yS444L0ZShRZLBpKUCgd-26" value="push" style="rounded=1;whiteSpace=wrap;html=1;" vertex="1" parent="1">
          <mxGeometry x="1002" y="591" width="120" height="60" as="geometry" />
        </mxCell>
        <mxCell id="yS444L0ZShRZLBpKUCgd-27" value="会议" style="rounded=1;whiteSpace=wrap;html=1;" vertex="1" parent="1">
          <mxGeometry x="352" y="591" width="120" height="60" as="geometry" />
        </mxCell>
        <mxCell id="yS444L0ZShRZLBpKUCgd-28" value="音视频" style="rounded=1;whiteSpace=wrap;html=1;" vertex="1" parent="1">
          <mxGeometry x="479" y="591" width="120" height="60" as="geometry" />
        </mxCell>
        <mxCell id="yS444L0ZShRZLBpKUCgd-29" value="文件存储" style="rounded=1;whiteSpace=wrap;html=1;" vertex="1" parent="1">
          <mxGeometry x="872" y="591" width="120" height="60" as="geometry" />
        </mxCell>
        <mxCell id="yS444L0ZShRZLBpKUCgd-30" value="日程" style="rounded=1;whiteSpace=wrap;html=1;" vertex="1" parent="1">
          <mxGeometry x="742" y="591" width="120" height="60" as="geometry" />
        </mxCell>
        <mxCell id="yS444L0ZShRZLBpKUCgd-31" value="消息已读" style="rounded=1;whiteSpace=wrap;html=1;" vertex="1" parent="1">
          <mxGeometry x="480" y="510" width="120" height="60" as="geometry" />
        </mxCell>
        <mxCell id="yS444L0ZShRZLBpKUCgd-32" value="数据同步" style="rounded=1;whiteSpace=wrap;html=1;" vertex="1" parent="1">
          <mxGeometry x="1002" y="510" width="120" height="60" as="geometry" />
        </mxCell>
        <mxCell id="yS444L0ZShRZLBpKUCgd-33" value="工作流" style="rounded=1;whiteSpace=wrap;html=1;" vertex="1" parent="1">
          <mxGeometry x="612.5" y="591" width="120" height="60" as="geometry" />
        </mxCell>
        <mxCell id="yS444L0ZShRZLBpKUCgd-34" value="消息同步" style="rounded=1;whiteSpace=wrap;html=1;" vertex="1" parent="1">
          <mxGeometry x="742" y="510" width="120" height="60" as="geometry" />
        </mxCell>
        <mxCell id="yS444L0ZShRZLBpKUCgd-35" value="会话管理" style="rounded=1;whiteSpace=wrap;html=1;" vertex="1" parent="1">
          <mxGeometry x="352" y="672" width="120" height="60" as="geometry" />
        </mxCell>
        <mxCell id="yS444L0ZShRZLBpKUCgd-36" value="OKR" style="rounded=1;whiteSpace=wrap;html=1;" vertex="1" parent="1">
          <mxGeometry x="479" y="672" width="120" height="60" as="geometry" />
        </mxCell>
        <mxCell id="yS444L0ZShRZLBpKUCgd-37" value="考勤" style="rounded=1;whiteSpace=wrap;html=1;" vertex="1" parent="1">
          <mxGeometry x="610" y="672" width="120" height="60" as="geometry" />
        </mxCell>
        <mxCell id="yS444L0ZShRZLBpKUCgd-38" value="机器人助手" style="rounded=1;whiteSpace=wrap;html=1;" vertex="1" parent="1">
          <mxGeometry x="742" y="672" width="120" height="60" as="geometry" />
        </mxCell>
        <mxCell id="yS444L0ZShRZLBpKUCgd-39" value="工作台" style="rounded=1;whiteSpace=wrap;html=1;" vertex="1" parent="1">
          <mxGeometry x="874" y="672" width="120" height="60" as="geometry" />
        </mxCell>
        <mxCell id="yS444L0ZShRZLBpKUCgd-40" value="... ..." style="rounded=1;whiteSpace=wrap;html=1;" vertex="1" parent="1">
          <mxGeometry x="1002" y="672" width="120" height="60" as="geometry" />
        </mxCell>
        <mxCell id="yS444L0ZShRZLBpKUCgd-41" value="" style="rounded=0;whiteSpace=wrap;html=1;fillColor=#dae8fc;strokeColor=#6c8ebf;" vertex="1" parent="1">
          <mxGeometry x="334" y="767" width="797" height="83" as="geometry" />
        </mxCell>
        <mxCell id="yS444L0ZShRZLBpKUCgd-42" value="ES集群" style="rounded=1;whiteSpace=wrap;html=1;" vertex="1" parent="1">
          <mxGeometry x="365.5" y="780" width="120" height="60" as="geometry" />
        </mxCell>
        <mxCell id="yS444L0ZShRZLBpKUCgd-43" value="MySQL主从" style="rounded=1;whiteSpace=wrap;html=1;" vertex="1" parent="1">
          <mxGeometry x="540" y="780" width="120" height="60" as="geometry" />
        </mxCell>
        <mxCell id="yS444L0ZShRZLBpKUCgd-44" value="Redis集群" style="rounded=1;whiteSpace=wrap;html=1;" vertex="1" parent="1">
          <mxGeometry x="715" y="780" width="120" height="60" as="geometry" />
        </mxCell>
        <mxCell id="yS444L0ZShRZLBpKUCgd-45" value="" style="whiteSpace=wrap;html=1;fillColor=#e1d5e7;strokeColor=#9673a6;" vertex="1" parent="1">
          <mxGeometry x="1170" y="300" width="160" height="550" as="geometry" />
        </mxCell>
        <mxCell id="yS444L0ZShRZLBpKUCgd-47" value="监控平台" style="text;html=1;align=center;verticalAlign=middle;resizable=0;points=[];autosize=1;strokeColor=none;fillColor=none;" vertex="1" parent="1">
          <mxGeometry x="1215" y="307.5" width="60" height="20" as="geometry" />
        </mxCell>
        <mxCell id="yS444L0ZShRZLBpKUCgd-48" value="" style="whiteSpace=wrap;html=1;" vertex="1" parent="1">
          <mxGeometry x="1195" y="340" width="105" height="100" as="geometry" />
        </mxCell>
        <mxCell id="yS444L0ZShRZLBpKUCgd-50" value="BZL 运维平台" style="whiteSpace=wrap;html=1;" vertex="1" parent="1">
          <mxGeometry x="1205" y="383" width="80" height="41.5" as="geometry" />
        </mxCell>
        <mxCell id="yS444L0ZShRZLBpKUCgd-53" value="" style="whiteSpace=wrap;html=1;" vertex="1" parent="1">
          <mxGeometry x="1197.5" y="470" width="105" height="90" as="geometry" />
        </mxCell>
        <mxCell id="yS444L0ZShRZLBpKUCgd-54" value="夜莺" style="whiteSpace=wrap;html=1;" vertex="1" parent="1">
          <mxGeometry x="1207.5" y="508.5" width="80" height="41.5" as="geometry" />
        </mxCell>
        <mxCell id="yS444L0ZShRZLBpKUCgd-57" value="系统监控" style="text;html=1;align=center;verticalAlign=middle;resizable=0;points=[];autosize=1;strokeColor=none;fillColor=none;" vertex="1" parent="1">
          <mxGeometry x="1201" y="347.5" width="60" height="20" as="geometry" />
        </mxCell>
        <mxCell id="yS444L0ZShRZLBpKUCgd-58" value="业务监控" style="text;html=1;align=center;verticalAlign=middle;resizable=0;points=[];autosize=1;strokeColor=none;fillColor=none;" vertex="1" parent="1">
          <mxGeometry x="1207.5" y="480" width="60" height="20" as="geometry" />
        </mxCell>
        <mxCell id="yS444L0ZShRZLBpKUCgd-61" value="" style="whiteSpace=wrap;html=1;" vertex="1" parent="1">
          <mxGeometry x="1197.5" y="602" width="105" height="88" as="geometry" />
        </mxCell>
        <mxCell id="yS444L0ZShRZLBpKUCgd-62" value="数星" style="whiteSpace=wrap;html=1;" vertex="1" parent="1">
          <mxGeometry x="1205" y="632.5" width="80" height="41.5" as="geometry" />
        </mxCell>
        <mxCell id="yS444L0ZShRZLBpKUCgd-63" value="数据埋点" style="text;html=1;align=center;verticalAlign=middle;resizable=0;points=[];autosize=1;strokeColor=none;fillColor=none;" vertex="1" parent="1">
          <mxGeometry x="1205" y="604" width="60" height="20" as="geometry" />
        </mxCell>
        <mxCell id="yS444L0ZShRZLBpKUCgd-64" value="" style="whiteSpace=wrap;html=1;" vertex="1" parent="1">
          <mxGeometry x="1197.5" y="727" width="105" height="88" as="geometry" />
        </mxCell>
        <mxCell id="yS444L0ZShRZLBpKUCgd-65" value="monitor" style="whiteSpace=wrap;html=1;" vertex="1" parent="1">
          <mxGeometry x="1207.5" y="757.5" width="80" height="41.5" as="geometry" />
        </mxCell>
        <mxCell id="yS444L0ZShRZLBpKUCgd-66" value="日志系统" style="text;html=1;align=center;verticalAlign=middle;resizable=0;points=[];autosize=1;strokeColor=none;fillColor=none;" vertex="1" parent="1">
          <mxGeometry x="1207.5" y="729" width="60" height="20" as="geometry" />
        </mxCell>
        <mxCell id="yS444L0ZShRZLBpKUCgd-69" value="MQ" style="rounded=1;whiteSpace=wrap;html=1;" vertex="1" parent="1">
          <mxGeometry x="910" y="780" width="120" height="60" as="geometry" />
        </mxCell>
        <mxCell id="yS444L0ZShRZLBpKUCgd-71" value="" style="verticalLabelPosition=bottom;sketch=0;html=1;fillColor=#282828;strokeColor=none;verticalAlign=top;pointerEvents=1;align=center;shape=mxgraph.cisco_safe.people_places_things_icons.icon2;" vertex="1" parent="1">
          <mxGeometry x="400.5" y="85.25" width="50" height="41" as="geometry" />
        </mxCell>
        <mxCell id="yS444L0ZShRZLBpKUCgd-74" value="" style="shape=mxgraph.cisco.people.androgenous_person;html=1;pointerEvents=1;dashed=0;fillColor=#036897;strokeColor=#ffffff;strokeWidth=2;verticalLabelPosition=bottom;verticalAlign=top;align=center;outlineConnect=0;" vertex="1" parent="1">
          <mxGeometry x="704" y="80" width="40" height="51.5" as="geometry" />
        </mxCell>
        <mxCell id="yS444L0ZShRZLBpKUCgd-75" value="" style="verticalLabelPosition=bottom;sketch=0;html=1;fillColor=#282828;strokeColor=none;verticalAlign=top;pointerEvents=1;align=center;shape=mxgraph.cisco_safe.people_places_things_icons.icon1;" vertex="1" parent="1">
          <mxGeometry x="943.5" y="81.5" width="46.5" height="50" as="geometry" />
        </mxCell>
        <mxCell id="yS444L0ZShRZLBpKUCgd-76" value="" style="shape=flexArrow;endArrow=classic;startArrow=classic;html=1;rounded=0;" edge="1" parent="1">
          <mxGeometry width="100" height="100" relative="1" as="geometry">
            <mxPoint x="425.02" y="210" as="sourcePoint" />
            <mxPoint x="425.02" y="140" as="targetPoint" />
          </mxGeometry>
        </mxCell>
        <mxCell id="yS444L0ZShRZLBpKUCgd-77" value="" style="shape=flexArrow;endArrow=classic;startArrow=classic;html=1;rounded=0;" edge="1" parent="1">
          <mxGeometry width="100" height="100" relative="1" as="geometry">
            <mxPoint x="726.05" y="206.25" as="sourcePoint" />
            <mxPoint x="726.05" y="136.25" as="targetPoint" />
          </mxGeometry>
        </mxCell>
        <mxCell id="yS444L0ZShRZLBpKUCgd-78" value="" style="shape=flexArrow;endArrow=classic;startArrow=classic;html=1;rounded=0;" edge="1" parent="1">
          <mxGeometry width="100" height="100" relative="1" as="geometry">
            <mxPoint x="969.5200000000002" y="210" as="sourcePoint" />
            <mxPoint x="969.5200000000002" y="140" as="targetPoint" />
          </mxGeometry>
        </mxCell>
        <mxCell id="yS444L0ZShRZLBpKUCgd-79" value="ios" style="text;html=1;align=center;verticalAlign=middle;resizable=0;points=[];autosize=1;strokeColor=none;fillColor=none;" vertex="1" parent="1">
          <mxGeometry x="465" y="100" width="30" height="20" as="geometry" />
        </mxCell>
        <mxCell id="yS444L0ZShRZLBpKUCgd-80" value="pc" style="text;html=1;align=center;verticalAlign=middle;resizable=0;points=[];autosize=1;strokeColor=none;fillColor=none;" vertex="1" parent="1">
          <mxGeometry x="755" y="100" width="30" height="20" as="geometry" />
        </mxCell>
        <mxCell id="yS444L0ZShRZLBpKUCgd-81" value="android" style="text;html=1;align=center;verticalAlign=middle;resizable=0;points=[];autosize=1;strokeColor=none;fillColor=none;" vertex="1" parent="1">
          <mxGeometry x="994" y="106.25" width="60" height="20" as="geometry" />
        </mxCell>
        <mxCell id="yS444L0ZShRZLBpKUCgd-82" value="&lt;font color=&quot;#cc0000&quot;&gt;网关？？？&lt;/font&gt;" style="shape=tape;whiteSpace=wrap;html=1;" vertex="1" parent="1">
          <mxGeometry x="320" y="220" width="780" height="60" as="geometry" />
        </mxCell>
      </root>
    </mxGraphModel>
  </diagram>
</mxfile>
